<svg width="20" height="81" xmlns="http://www.w3.org/2000/svg">
 <defs>
  <style>.cls-2 {
        fill: #666;
      }
      .cls-2, .cls-3 {
        fill-rule: evenodd;
      }</style>
 </defs>
 <g>
  <title>background</title>
  <rect fill="none" id="canvas_background" height="83" width="22" y="-1" x="-1"/>
 </g>
 <g>
  <title>Layer 1</title>
  <path id="svg_1" d="m15,13l-9,0a2,2 0 0 1 -2,-2l0,-7a2,2 0 0 1 2,-2l1,0l0,-2l1,0l0,2l5,0l0,-2l1,0l0,2l1,0a2,2 0 0 1 2,2l0,7a2,2 0 0 1 -2,2zm1,-9a1,1 0 0 0 -1,-1l-9,0a1,1 0 0 0 -1,1l0,7a1,1 0 0 0 1,1l9,0a1,1 0 0 0 1,-1l0,-7zm-3,5l1,0l0,1l-1,0l0,-1zm0,-2l1,0l0,1l-1,0l0,-1zm0,-2l1,0l0,1l-1,0l0,-1zm-3,4l1,0l0,1l-1,0l0,-1zm0,-2l1,0l0,1l-1,0l0,-1zm0,-2l1,0l0,1l-1,0l0,-1zm-3,4l1,0l0,1l-1,0l0,-1zm0,-2l1,0l0,1l-1,0l0,-1zm0,-2l1,0l0,1l-1,0l0,-1z" class="cls-2"/>
  <path id="svg_2" d="m11.024,23.648l3.735,0l0,3.54a1.694,1.694 0 0 1 -1.83,1.9c-1.56,0 -1.9,-1.14 -1.9,-2.475l0,-2.97l-0.005,0.005zm-5.775,-1.425l0,1.425l4.575,0l0,3.48c0,1.38 -0.885,1.635 -1.935,1.785c-1.05,0.21 -2.2,-0.015 -2.64,0.39l0,1.59c0.735,-0.6 1.9,-0.54 2.955,-0.63c1.05,-0.105 1.965,-0.36 2.2,-1.6l0.03,0a2.569,2.569 0 0 0 2.715,1.86c1.71,0 2.805,-1.245 2.805,-3.255l0,-5.04l-10.71,0l0.005,-0.005zm2.46,16.237a1.869,1.869 0 0 1 -1.515,-2.01a2.284,2.284 0 0 1 2.55,-2.415l0,5.8c1.875,0.075 4.44,-0.765 4.44,-3.51a3.733,3.733 0 0 0 -4.035,-3.645c-2.37,0.075 -4.08,1.245 -4.08,3.72a3.126,3.126 0 0 0 2.64,3.315l0,-1.26l0,0.005zm2.16,-4.425a2.209,2.209 0 0 1 2.19,2.22a2.231,2.231 0 0 1 -2.19,2.235l0,-4.454l0,-0.001zm-2.175,7.582c-1.92,0.075 -2.625,1.545 -2.625,3.285c0,1.575 0.6,3.3 2.445,3.3c1.5,0 1.92,-1.26 2.2,-2.535c0.285,-1.185 0.435,-2.535 1.35,-2.535c0.78,0 0.99,0.885 0.99,1.65a1.56,1.56 0 0 1 -1.305,1.8l0,1.275c1.89,-0.105 2.43,-1.47 2.43,-3.18c0,-1.35 -0.645,-2.895 -2.205,-2.895c-1.485,0 -1.9,1.275 -2.19,2.535c-0.285,1.275 -0.45,2.535 -1.44,2.535c-0.975,0 -1.155,-1.08 -1.155,-1.875c0,-1.05 0.36,-2.04 1.5,-2.085l0,-1.274l0.005,-0.001zm0.015,14.211a1.869,1.869 0 0 1 -1.515,-2.01a2.284,2.284 0 0 1 2.55,-2.415l0,5.8c1.875,0.075 4.44,-0.765 4.44,-3.51a3.733,3.733 0 0 0 -4.035,-3.645c-2.37,0.075 -4.08,1.245 -4.08,3.72a3.126,3.126 0 0 0 2.64,3.315l0,-1.26l0,0.005zm2.16,-4.425a2.209,2.209 0 0 1 2.19,2.22a2.231,2.231 0 0 1 -2.19,2.235l0,-4.458l0,0.003zm-4.62,8.025l0,1.272l3.45,0c1.965,0 3.135,0.75 3.135,2.8l1.35,0a2.819,2.819 0 0 0 -1.815,-2.85l0,-0.03l1.631,0l0,-1.2l-7.755,0l0.004,0.008zm7.751,12.685l0,-1.335l-6.465,-2.115l0,-0.03l6.465,-2.175l0,-1.425l-7.755,2.88l0,1.365l7.755,2.835zm-5.3,7.077a1.869,1.869 0 0 1 -1.515,-2.01a2.284,2.284 0 0 1 2.55,-2.415l0,5.8c1.875,0.075 4.44,-0.765 4.44,-3.51a3.734,3.734 0 0 0 -4.035,-3.645c-2.37,0.075 -4.08,1.245 -4.08,3.72a3.127,3.127 0 0 0 2.64,3.315l0,-1.26l0,0.005zm2.16,-4.425a2.209,2.209 0 0 1 2.19,2.22a2.231,2.231 0 0 1 -2.19,2.235l0,-4.455z" class="cls-3"/>
 </g>
</svg>